<?xml version="1.0" standalone="no"?>
<!DOCTYPE svg PUBLIC "-//W3C//DTD SVG 20010904//EN"
 "http://www.w3.org/TR/2001/REC-SVG-20010904/DTD/svg10.dtd">
<svg version="1.0" xmlns="http://www.w3.org/2000/svg"
 width="340.000000pt" height="150.000000pt" viewBox="0 0 340.000000 150.000000"
 preserveAspectRatio="xMidYMid meet">

<g transform="translate(0.000000,150.000000) scale(0.100000,-0.100000)"
fill="#000000" stroke="none">
<path d="M2093 1430 c-54 -24 -83 -70 -83 -130 0 -84 57 -140 142 -140 55 0
87 17 115 59 30 44 31 113 3 159 -19 32 -86 72 -120 72 -8 0 -34 -9 -57 -20z"/>
<path d="M1344 1360 c-184 -39 -316 -210 -313 -405 l1 -60 13 41 c29 93 73
143 144 169 106 37 140 24 555 -209 57 -32 124 -60 155 -67 164 -34 349 43
428 178 37 63 63 156 62 221 0 62 2 64 -37 -31 -32 -79 -132 -134 -222 -124
-62 7 -179 62 -361 167 -76 44 -160 90 -186 101 -54 23 -176 33 -239 19z"/>
<path d="M1171 1028 c-19 -12 -43 -37 -53 -55 l-19 -31 83 2 c85 1 158 -9 158
-22 0 -5 -28 -6 -63 -4 -87 6 -177 -14 -177 -37 0 -31 43 -85 83 -105 53 -26
104 -16 227 45 56 27 112 49 125 49 41 0 37 17 -12 55 -75 57 -201 115 -263
121 -47 5 -60 2 -89 -18z"/>
<path d="M1039 572 c-30 -25 -20 -69 18 -78 35 -9 68 27 53 57 -18 33 -45 41
-71 21z"/>
<path d="M211 444 c-30 -25 -31 -25 -31 -5 0 18 -6 21 -45 21 l-45 0 0 -160 0
-160 45 0 45 0 0 108 c0 120 10 142 63 142 45 0 57 -32 57 -147 l0 -103 46 0
46 0 -4 136 -3 136 -33 29 c-43 39 -98 40 -141 3z"/>
<path d="M645 463 c-31 -8 -83 -51 -100 -83 -23 -45 -19 -130 8 -170 36 -53
70 -73 134 -78 79 -5 139 26 171 88 71 140 -53 282 -213 243z m108 -83 c77
-61 42 -173 -53 -172 -80 1 -118 96 -63 159 34 38 78 43 116 13z"/>
<path d="M1364 459 c-74 -21 -124 -121 -103 -203 44 -176 311 -164 344 15 24
129 -103 228 -241 188z m127 -90 c23 -24 29 -40 29 -74 0 -36 -5 -48 -31 -69
-41 -35 -83 -34 -120 3 -23 23 -29 38 -29 71 0 33 6 48 29 71 40 40 83 39 122
-2z"/>
<path d="M1893 460 c-12 -5 -28 -18 -35 -30 -18 -28 -30 -25 -22 5 6 24 4 25
-39 25 l-46 0 -3 -160 -3 -160 48 0 47 0 0 90 c0 83 2 93 24 115 13 13 36 27
50 31 23 5 26 11 26 50 0 46 -6 50 -47 34z"/>
<path d="M2162 463 c-36 -7 -98 -73 -112 -120 -16 -53 -3 -106 37 -154 101
-119 313 -44 313 111 0 20 -10 56 -23 80 -38 72 -116 102 -215 83z m126 -99
c50 -57 15 -150 -59 -157 -76 -8 -121 71 -83 144 28 55 99 62 142 13z"/>
<path d="M2668 451 c-31 -25 -53 -27 -44 -6 4 12 -4 15 -39 15 l-45 0 0 -160
0 -160 43 0 42 0 0 104 c0 117 13 146 66 146 47 0 59 -30 59 -147 l0 -103 45
0 45 0 0 108 c0 168 -20 210 -102 219 -33 4 -49 0 -70 -16z"/>
<path d="M3084 460 c-41 -13 -90 -69 -104 -119 -39 -145 114 -259 256 -190
115 55 121 229 12 294 -35 20 -121 28 -164 15z m99 -71 c88 -45 70 -175 -26
-184 -31 -2 -43 2 -67 27 -48 48 -39 121 18 152 33 18 47 19 75 5z"/>
<path d="M1018 288 c-3 -170 -3 -173 -26 -183 -18 -8 -22 -17 -20 -40 3 -29 5
-30 47 -29 35 1 49 7 68 28 22 26 23 33 23 212 l0 184 -45 0 -45 0 -2 -172z"/>
</g>
</svg>
